<svg width="506.9999" height="140" xmlns="http://www.w3.org/2000/svg">

 <g>
  <title>background</title>
  <rect fill="none" id="canvas_background" height="402" width="582" y="-1" x="-1"/>
 </g>
 <g>
  <title>Layer 1</title>
  <g id="surface1">
   <path id="svg_1" fill-rule="nonzero" fill="rgb(76.470947%,5.097961%,0%)" d="m54.26172,6.85547l0.01562,0.00781c-0.05078,-0.02344 -0.08593,-0.03515 -0.01562,-0.00781zm61.03516,14.93359c-0.09766,-1.67578 -0.39063,-3.3789 -0.86719,-5.0664c-0.46094,-1.6836 -1.11719,-3.35547 -1.99219,-4.92188c-1.72266,-3.14453 -4.23437,-5.90234 -7.15625,-7.84765c-2.91406,-1.97266 -6.12891,-3.26563 -9.35937,-3.96485c-3.25,-0.69141 -6.49219,-0.80859 -9.76563,-0.14062c-1.92578,0.43359 -2.97266,0.90625 -4.23047,1.375c-1.21484,0.47265 -2.34765,0.97265 -3.42187,1.45312c-2.14453,0.96875 -4.04297,1.88672 -5.70313,2.67969c-1.66015,0.79687 -3.08203,1.45703 -4.23828,1.98047c-0.57031,0.25781 -1.08594,0.48828 -1.53125,0.6875c-0.42578,0.17969 -0.78516,0.33203 -1.07812,0.45703c-0.05469,0.01953 -0.08985,0.03516 -0.14063,0.05469c-0.28516,-0.29688 -0.55469,-0.59375 -0.85547,-0.89063c-1.15234,-1.19922 -2.46875,-2.38281 -3.96094,-3.49609c-0.38281,-0.27344 -0.76562,-0.54688 -1.15625,-0.82031c-0.45312,-0.26954 -0.91406,-0.53907 -1.37109,-0.80469c-0.5,-0.30469 -0.84375,-0.4336 -1.24609,-0.625l-0.58594,-0.27344l-0.07422,-0.03516l-0.03516,-0.01562l-0.1914,-0.07813l-0.1836,-0.05859l-0.36718,-0.125c-3.91797,-1.36719 -8.16016,-1.46484 -12.33594,-0.47266c-4.14453,1.0625 -8.19141,3.58594 -10.89844,7.19922c-2.68359,3.64063 -4.02344,7.875 -4.48828,12.16797c-0.0625,0.91406 -0.125,1.82031 -0.1875,2.72266l-0.01172,0.17187l-0.0039,0.08203l-0.00782,0.29297l0.00782,0.39063l0.01562,0.77734c0.00391,0.52344 0.02734,1.03516 0.08203,1.54297c0.14453,2.05078 0.54297,4.00781 1.02735,5.88281c0.99218,3.75782 2.51171,7.10547 4.1289,10.11328c1.61328,3.01954 3.40625,5.66407 5.15235,8.01563c3.5,4.69531 6.82031,8.20312 9.22265,10.58984c1.21094,1.1875 2.19531,2.08985 2.88672,2.70313c0.71484,0.625 1.09766,0.95703 1.09766,0.95703l5.26172,-6.19141c0,0 -0.3125,-0.28125 -0.89844,-0.80468c-0.60156,-0.55469 -1.48828,-1.38672 -2.58203,-2.48829c-2.19532,-2.1875 -5.30078,-5.41406 -8.48047,-9.63671c-1.57031,-2.11329 -3.19922,-4.45313 -4.66406,-7.02344c-1.46875,-2.56641 -2.76954,-5.375 -3.65625,-8.32813c-0.4336,-1.47656 -0.80079,-2.98828 -0.95313,-4.51172c-0.05859,-0.38281 -0.08594,-0.76171 -0.10156,-1.14062l-0.03125,-0.57422l-0.01953,-0.28906l0,-0.02344l0.0039,-0.10547c0.03125,-0.90625 0.0625,-1.8125 0.09375,-2.72656c0.26172,-2.94531 1.0586,-6.07031 2.71094,-8.50391c1.64844,-2.42187 4.15234,-4.16015 7.01953,-5.10156c2.8711,-0.875 6.10156,-0.98828 8.81641,-0.19531l0.2539,0.0664l0.12891,0.03125c0.02344,0.00782 -0.04297,-0.01953 -0.09375,-0.03906l0.01953,0.00781l0.07422,0.03125l0.60156,0.23829c0.38672,0.15625 0.85938,0.32031 1.08594,0.46875l0.85156,0.4375l0.9375,0.59375c1.23828,0.82031 2.42578,1.76171 3.58594,2.76562c1.15625,0.98438 2.27344,2.03906 3.37891,3.05859c1.12109,1.01172 2.23437,2 3.38281,2.92188c0.55859,0.46484 1.17187,0.90234 1.74219,1.32031c0.64453,0.38281 1.1914,0.80078 1.86328,1.11328c1.23047,0.70313 2.65234,1.14063 3.99219,1.33985c0.6289,0.05468 1.10937,0.09375 1.6914,0.12109c0.5586,0.03125 1.09375,0.05078 1.60156,0.05078c1.01563,0.00781 1.94922,-0.04687 2.78907,-0.11328c1.67578,-0.14453 2.97265,-0.40625 3.84375,-0.64062c0.86718,-0.23438 1.32422,-0.42188 1.32422,-0.42188l-0.13672,-0.54687c0,0 -0.44532,0.03906 -1.30469,0.00781c-0.85547,-0.02344 -2.10938,-0.10156 -3.67969,-0.33203c-0.78515,-0.10938 -1.64844,-0.26563 -2.57812,-0.46485c-0.46875,-0.09375 -0.94141,-0.20312 -1.42969,-0.32422c-0.46484,-0.10937 -1.0625,-0.27734 -1.54297,-0.41015c-1.50781,-0.49219 -3.05469,-1.625 -4.64844,-3.1875c0.06641,-0.03125 0.125,-0.0586 0.19922,-0.08594c2.53516,-1.12109 5.95313,-2.89453 9.9375,-4.73828c0.9961,-0.45703 2.03516,-0.91016 3.09766,-1.35156c1.01562,-0.4336 2.32031,-0.95703 2.94531,-1.07813c1.82422,-0.44922 4.19141,-0.45703 6.51953,-0.05859c2.34375,0.40625 4.71094,1.2539 6.80078,2.55078c2.09766,1.28906 3.90235,3.02734 5.21485,5.13672c0.66406,1.04297 1.19531,2.1914 1.59765,3.39844c0.42188,1.19921 0.69532,2.46484 0.86719,3.76171c0.10547,0.64063 0.15234,1.29688 0.19141,1.95704l0.03515,0.46875l0.01172,0.55078l0.01172,1.01953c0.00781,1.33203 -0.09375,2.5625 -0.31641,3.69922c-0.4414,2.24609 -1.625,4.40234 -2.95312,6.52343c-1.09375,1.83985 -2.64844,3.23047 -4.30078,4.24219c-1.66797,0.97266 -3.4336,1.57031 -5.02344,1.71875c-1.59375,0.19141 -2.99219,-0.05078 -3.99609,-0.51953c-1.01172,-0.46875 -1.625,-1.17969 -1.94141,-1.74609c-0.32812,-0.56641 -0.39453,-0.94532 -0.41406,-0.9375l-0.5625,0.05859c0.02344,-0.00391 -0.06641,0.39844 0.04687,1.1875c0.10938,0.76953 0.55078,2.00391 1.73438,3.05859c1.16015,1.07422 2.96484,1.85547 5.0664,2.10938c2.10157,0.22266 4.53907,-0.00781 6.97266,-1.00781c2.44141,-0.94922 4.88672,-2.71875 6.73828,-5.19532c0.82422,-1.08984 1.62891,-2.27734 2.39063,-3.60937c0.7539,-1.33203 1.4375,-2.85547 1.89062,-4.48047c0.44531,-1.625 0.67969,-3.28125 0.78125,-4.875l0.06641,-1.18359l0.02734,-0.55078l0.00391,-0.64063c0.00781,-0.82031 0.0039,-1.64844 -0.07031,-2.49219"/>
   <path id="svg_2" fill-rule="nonzero" fill="rgb(76.470947%,5.097961%,0%)" d="m89.06641,70.44531c-0.4336,-1.09375 -4.06641,-0.77734 -9.33985,0.58985c0.16797,-4.75 0.21875,-7.71094 0.21875,-7.71094l-24.375,0c0,0 0.08985,4.89453 0.39063,12.20312c1.99219,-0.76562 11.36719,-4.13671 19.88672,-3.38281c-2.89844,0.89063 -6.09375,2.00781 -9.4336,3.33203c-3.78906,1.4961 -7.27734,3.0625 -10.25,4.5586c-6.26172,3.14843 -10.21484,5.99218 -9.71093,7.26562c0.44921,1.14063 4.39453,0.7461 10.05468,-0.78125c0.17578,2.98047 0.37891,6.10938 0.6211,9.28906c3.15234,-1.08984 10.60547,-3.33593 17.66015,-3.0039c0.00391,0 0.00782,-0.00391 0.01172,-0.00391c-2.54687,0.79297 -5.34375,1.77735 -8.25781,2.92969c-3.35156,1.32812 -6.45313,2.71094 -9.10156,4.03906c-5.76172,2.88281 -9.41016,5.49219 -8.95313,6.65625c0.42188,1.0586 4.15235,0.66406 9.48438,-0.80859c0.34765,3.5039 0.73828,6.95703 1.1875,10.2539c3.47656,-1.04687 9.0039,-2.38671 14.46875,-2.36328c-2.16797,0.6875 -4.50782,1.50782 -6.95703,2.47657c-2.55469,1.01171 -4.9336,2.05859 -7.05079,3.08203c-5.77343,2.78125 -9.53125,5.37109 -9.09375,6.48437c0.41407,1.04297 4.4336,0.50391 10,-1.16015c1.7461,9.15625 4.08985,15.60937 7.23047,15.60937c3.79688,0 6.42578,-9.41797 8.2461,-21.64844c5.71093,-2.76562 9.42187,-5.33203 8.98437,-6.43359c-0.36719,-0.92969 -3.58594,-0.60156 -8.20703,0.64844c0.58594,-4.80078 1.06641,-9.85157 1.46094,-14.8125c5.66406,-2.84766 9.24219,-5.42188 8.78515,-6.57422c-0.38671,-0.98047 -3.6289,-0.70703 -8.34375,0.50781c0.33985,-5.05469 0.59375,-9.85937 0.78125,-14.03516c6.19532,-3.125 10.10157,-5.94531 9.60157,-7.20703"/>
   <path id="svg_3" fill-rule="nonzero" fill="rgb(76.470947%,5.097961%,0%)" d="m134.91797,77.10938l-1.33984,-0.85547c-0.22266,-0.14063 -0.47266,-0.29688 -0.7461,-0.47266c-0.8125,-0.52344 -1.82422,-1.17187 -3.0664,-1.88281c-1.60938,-0.98047 -3.61329,-2.07422 -6.15625,-3.4336l-3.8711,-1.91796c-0.48828,-0.21485 -0.98047,-0.44141 -1.48437,-0.67188c-0.92188,-0.41797 -1.8711,-0.85156 -2.8711,-1.27734c-3.07422,-1.27735 -6.42578,-2.61719 -10.07031,-3.76563c-3.51562,-1.17187 -7.42187,-2.23437 -11.59375,-3.16015c-3.5625,-0.81641 -7.59375,-1.48047 -12.69531,-2.10157c-4.10938,-0.45703 -8.44531,-0.70703 -13.28516,-0.76562c-4.77734,0.0625 -9.23047,0.32031 -13.25,0.76953c-5.08984,0.61719 -9.12109,1.28516 -12.67969,2.09766c-4.18359,0.92578 -8.08984,1.99218 -11.58593,3.15234c-3.64844,1.15234 -7.00391,2.49609 -10.09766,3.77734c-0.99609,0.42969 -1.96094,0.86719 -2.89062,1.28907c-0.49219,0.22656 -0.97657,0.44531 -1.48829,0.67578l-3.86328,1.91406c-2.51562,1.34375 -4.51562,2.4375 -6.09765,3.40234c-1.26563,0.72266 -2.28125,1.3711 -3.09766,1.89844c-0.27344,0.17578 -0.52344,0.33594 -0.75391,0.47656l-1.33203,0.85157c-0.3789,0.23828 -0.59375,0.64453 -0.60156,1.0625l0,0.02734c0,0.16797 0.03516,0.33984 0.10547,0.50391c0.20312,0.47656 0.66797,0.78125 1.18359,0.78125c0.17969,0 0.34766,-0.03125 0.5586,-0.125l5.60547,-2.36719c1.03906,-0.45313 2.26562,-0.9336 3.5625,-1.4375c0.89062,-0.34766 1.83203,-0.71485 2.78125,-1.09766l3.92187,-1.41015c0.73047,-0.23047 1.46875,-0.48829 2.22656,-0.75c0.70703,-0.25 1.42969,-0.5 2.15625,-0.73047c0.55078,-0.16407 1.10938,-0.33594 1.67578,-0.51563c1.00391,-0.3125 2.04297,-0.63672 3.10938,-0.90625c0.67969,-0.17187 1.36328,-0.37109 2.05078,-0.57422l0.51563,-0.15234c0.54296,-0.15625 1.10156,-0.29688 1.66406,-0.4375l0.9414,-0.23828c3.375,-0.87891 6.94141,-1.55078 10.71485,-2.26172l0.46875,-0.08594c2.96094,-0.57031 5.98437,-0.89062 9.1875,-1.22656c0.94922,-0.10156 1.90625,-0.20313 2.82812,-0.30859l0.70313,-0.05469c1.80469,-0.14844 3.67187,-0.30078 5.49219,-0.35156c1.375,-0.08594 2.94531,-0.08985 4.46093,-0.09766c0.65235,0 1.3086,-0.00391 1.92969,-0.01172l3.08984,0.02734l0.27344,-0.0039c0.84375,0 1.6836,0.03906 2.52344,0.07812l0.32422,0.01563c1.82422,0.04687 3.67187,0.19531 5.46094,0.34375l0.71093,0.05469c1.08985,0.1289 2.1836,0.24609 3.26953,0.36328c3.0586,0.32422 5.94922,0.63281 8.78516,1.18359c3.74609,0.70313 7.61719,1.42578 11.17969,2.34766l0.95312,0.24218c0.5586,0.14063 1.10938,0.27735 1.64844,0.42969l0.80469,0.23828c0.58984,0.17188 1.17578,0.34766 1.76953,0.4961c1.05859,0.26562 2.09766,0.58984 3.10156,0.90234c0.56641,0.17969 1.125,0.35156 1.64063,0.5l4.3789,1.48047l3.92969,1.40625c0.99219,0.40234 1.94531,0.77344 2.83984,1.12109c1.28907,0.5 2.50391,0.97266 3.54688,1.42578c1.75781,0.72657 3.17969,1.32813 4.13281,1.74219l1.50781,0.64063c0.56641,0.24609 1.26563,0.03515 1.59766,-0.49219c0.38281,-0.59766 0.20703,-1.39453 -0.39453,-1.77734"/>
   <path id="svg_4" fill-rule="nonzero" fill="#ffffff" d="m201.37891,22.90234l-2.25,2.08985c-1.60547,-1.60938 -3.78907,-2.53906 -6.23438,-2.53906c-4.46484,0 -7.96875,3.4375 -7.96875,8.19531c0,4.78515 3.50391,8.1914 7.96875,8.1914c2.44531,0 4.62891,-0.89843 6.23438,-2.53906l2.25,2.08985c-2.1211,2.28125 -5.14063,3.72656 -8.48438,3.72656c-6.32812,0 -11.4414,-5.14063 -11.4414,-11.46875c0,-6.33203 5.11328,-11.47656 11.4414,-11.47656c3.34375,0 6.36328,1.44921 8.48438,3.73046"/>
   <path id="svg_5" fill-rule="nonzero" fill="#ffffff" d="m212.89063,41.89453l-3.21485,0l0,-12.98437l-5.43359,0l0,-3.08203l14.10937,0l0,3.08203l-5.46093,0l0,12.98437zm0,0"/>
   <path id="svg_6" fill-rule="nonzero" fill="#ffffff" d="m224.14063,33.85938c0,3.05468 2.34375,5.14062 5.01171,5.14062c2.66797,0 5.04688,-2.08594 5.04688,-5.14062c0,-3.05469 -2.37891,-5.17188 -5.04688,-5.17188c-2.66796,0 -5.01171,2.11719 -5.01171,5.17188zm13.26953,0c0,4.5625 -3.69532,8.22656 -8.25782,8.22656c-4.5625,0 -8.22656,-3.66406 -8.22656,-8.22656c0,-4.5625 3.66406,-8.25782 8.22656,-8.25782c4.5625,0 8.25782,3.69532 8.25782,8.25782"/>
   <path id="svg_7" fill-rule="nonzero" fill="#ffffff" d="m255.79688,41.89453l0,-10.79687l-5.20704,5.9414l-5.20312,-5.9414l0,10.79687l-3.21484,0l0,-16.0664l2.02343,0l6.39453,7.32421l6.39454,-7.32421l2.02734,0l0,16.0664l-3.21484,0zm0,0"/>
   <path id="svg_8" fill-rule="nonzero" fill="#ffffff" d="m277.04297,33.85938c0,-3.05469 -2.37891,-5.17188 -5.04688,-5.17188c-2.66796,0 -5.01171,2.11719 -5.01171,5.17188c0,3.05468 2.34375,5.14062 5.01171,5.14062c2.66797,0 5.04688,-2.08594 5.04688,-5.14062zm0.76953,8.03515l-0.19141,-2.95703c-1.1875,1.89453 -3.375,3.14844 -5.91406,3.14844c-4.5625,0 -7.9375,-3.66406 -7.9375,-8.22656c0,-4.5625 3.375,-8.25782 7.9375,-8.25782c2.53906,0 4.72656,1.28516 5.91406,3.17969l0.19141,-2.95703l2.1875,0l0,16.07031l-2.1875,0zm0,0"/>
   <path id="svg_9" fill-rule="nonzero" fill="#ffffff" d="m292.60156,41.89453l-3.21484,0l0,-12.98437l-5.42969,0l0,-3.08203l14.10547,0l0,3.08203l-5.46094,0l0,12.98437zm0,0"/>
   <path id="svg_10" fill-rule="nonzero" fill="#ffffff" d="m303.85156,33.85938c0,3.05468 2.34766,5.14062 5.01172,5.14062c2.66797,0 5.04688,-2.08594 5.04688,-5.14062c0,-3.05469 -2.37891,-5.17188 -5.04688,-5.17188c-2.66406,0 -5.01172,2.11719 -5.01172,5.17188zm13.26953,0c0,4.5625 -3.69531,8.22656 -8.25781,8.22656c-4.5625,0 -8.22656,-3.66406 -8.22656,-8.22656c0,-4.5625 3.66406,-8.25782 8.22656,-8.25782c4.5625,0 8.25781,3.69532 8.25781,8.25782"/>
   <path id="svg_11" fill-rule="nonzero" fill="#ffffff" d="m322.6875,41.89453l-3.40625,0l7.42578,-16.0664l1.99219,0l7.42187,16.0664l-3.375,0l-5.04296,-11.28125l-5.01563,11.28125zm0,0"/>
   <path id="svg_12" fill-rule="nonzero" fill="#ffffff" d="m341.36328,33.85938c0,3.05468 2.34375,5.14062 5.01172,5.14062c2.66797,0 5.04688,-2.08594 5.04688,-5.14062c0,-3.05469 -2.37891,-5.17188 -5.04688,-5.17188c-2.66797,0 -5.01172,2.11719 -5.01172,5.17188zm13.26953,0c0,4.5625 -3.69531,8.22656 -8.25781,8.22656c-4.5625,0 -8.22656,-3.66406 -8.22656,-8.22656c0,-4.5625 3.66406,-8.25782 8.22656,-8.25782c4.5625,0 8.25781,3.69532 8.25781,8.25782"/>
   <path id="svg_13" fill-rule="nonzero" fill="#ffffff" d="m362.60547,41.89453l-3.21094,0l0,-16.0664l12.21094,0l0,3.08203l-9,0l0,12.98437zm0,0"/>
   <path id="svg_14" fill-rule="nonzero" fill="#ffffff" d="m387.06641,41.89453l0,-10.79687l-9.44532,10.79687l-2.02734,0l0,-16.0664l3.21484,0l0,10.79687l9.44532,-10.79687l2.02734,0l0,16.0664l-3.21484,0zm0,0"/>
   <path id="svg_15" fill-rule="nonzero" fill="#ffffff" d="m407.92578,41.89453l0,-5.72265c-0.99609,1.41406 -2.73047,2.1875 -4.88281,2.1875c-5.23828,0 -7.19922,-3.3125 -7.19922,-8.03516l0,-4.49609l3.21484,0l0,4.30468c0,3.40625 1.15625,5.14063 4.46485,5.14063c3.27734,0 4.40234,-2.02344 4.40234,-4.72266l0,-4.72265l3.21485,0l0,16.0664l-3.21485,0zm0,0"/>
   <path id="svg_16" fill-rule="nonzero" fill="#ffffff" d="m419.33984,32.63672l9.22266,0c0,-0.48047 -0.12891,-1.08984 -0.38672,-1.57422c-0.67578,-1.47656 -2.12109,-2.53516 -4.11328,-2.53516c-2.73047,0 -4.59375,1.92579 -4.72266,4.10938zm11.82422,-2.50391c0.61328,1.34766 0.67578,3.33985 0.28907,4.5625l-12.24219,0c0,2.82813 2.15234,4.46485 5.01172,4.46485c1.86328,0 3.66406,-0.51172 5.17578,-1.41407l1.73437,1.86329c-1.76953,1.35156 -4.11328,2.47656 -6.91015,2.47656c-4.94532,0 -8.32032,-3.46875 -8.32032,-8.22656c0,-4.5625 3.14844,-8.25782 8.12891,-8.25782c3.46875,0 5.94531,1.73438 7.13281,4.53125"/>
   <path id="svg_17" fill-rule="nonzero" fill="#ffffff" d="m450.25781,28.58984l-1.92968,2.08594c-1.31641,-1.3789 -2.73047,-1.95703 -4.40235,-1.95703c-2.66797,0 -5.01172,2.08594 -5.01172,5.14063c0,3.05468 2.34375,5.14062 5.01172,5.14062c1.67188,0 3.08594,-0.60937 4.40235,-1.96094l1.92968,2.08985c-1.51172,1.80078 -3.79297,2.95703 -6.33203,2.95703c-4.5625,0 -8.22656,-3.66406 -8.22656,-8.22656c0,-4.5625 3.66406,-8.22657 8.22656,-8.22657c2.53906,0 4.82031,1.15625 6.33203,2.95703"/>
   <path id="svg_18" fill-rule="nonzero" fill="#ffffff" d="m463.72656,37.71484c-1.22265,-1.89453 -1.80078,-2.53906 -3.69531,-2.53906l-1.80078,0l0,6.71875l-3.21484,0l0,-16.07031l3.21484,0l0,6.23437l1.54297,0c1.92969,0 2.47265,-0.64062 3.69531,-2.57031l2.41016,-3.66406l3.5664,0l-3.27734,5.01562c-0.90234,1.31641 -1.73438,2.375 -2.60547,2.73047c1.03125,0.32032 1.89844,1.38282 2.82813,2.82813l3.60156,5.49609l-3.56641,0l-2.69922,-4.17969zm0,0"/>
   <path id="svg_19" fill-rule="nonzero" fill="#ffffff" d="m485.74219,33.85938c0,-3.05469 -2.37891,-5.17188 -5.04688,-5.17188c-2.66797,0 -5.01172,2.11719 -5.01172,5.17188c0,3.05468 2.34375,5.14062 5.01172,5.14062c2.66797,0 5.04688,-2.08594 5.04688,-5.14062zm0.76953,8.03515l-0.19141,-2.95703c-1.1875,1.89453 -3.375,3.14844 -5.91406,3.14844c-4.5625,0 -7.9375,-3.66406 -7.9375,-8.22656c0,-4.5625 3.375,-8.25782 7.9375,-8.25782c2.53906,0 4.72656,1.28516 5.91406,3.17969l0.19141,-2.95703l2.1875,0l0,16.07031l-2.1875,0zm0,0"/>
   <path id="svg_20" fill-rule="nonzero" fill="#ffffff" d="m499.85547,28.91016c-2.1875,0 -3.3125,1.02734 -3.3125,2.66797c0,1.60546 1.125,2.63671 3.3125,2.63671l4.69141,0l0,-5.30468l-4.69141,0zm4.69141,12.98437l0,-4.94922l-2.79688,0c-1.73437,0.03125 -2.28125,0.73828 -3.5,2.57032l-1.60937,2.3789l-3.50391,0l1.86328,-2.82812c0.74219,-1.0625 1.28906,-1.99219 2.15625,-2.57032c-2.37891,-0.64453 -3.82422,-2.73437 -3.82422,-4.91796c0,-2.82813 1.76563,-5.75391 6.84375,-5.75391l7.58203,0l0,16.07031l-3.21093,0zm0,0"/>
   <path id="svg_21" fill-rule="nonzero" fill="#ffffff" d="m191.16016,76.28516c-1.22266,-1.89453 -1.80078,-2.53516 -3.69532,-2.53516l-1.80078,0l0,6.71484l-3.21484,0l0,-16.07031l3.21484,0l0,6.23828l1.54297,0c1.92969,0 2.47266,-0.64453 3.69531,-2.57422l2.41016,-3.66406l3.56641,0l-3.27735,5.01563c-0.89843,1.3164 -1.73437,2.3789 -2.60156,2.73047c1.02734,0.32421 1.89453,1.38281 2.82813,2.82812l3.59765,5.49609l-3.5664,0l-2.69922,-4.17968zm0,0"/>
   <path id="svg_22" fill-rule="nonzero" fill="#ffffff" d="m202.85938,80.46484l-3.40235,0l7.42188,-16.0664l1.99218,0l7.42188,16.0664l-3.37109,0l-5.04688,-11.28125l-5.01562,11.28125zm0,0"/>
   <path id="svg_23" fill-rule="nonzero" fill="#ffffff" d="m231.40234,80.46484l0,-10.79687l-9.44921,10.79687l-2.02344,0l0,-16.0664l3.21094,0l0,10.79687l9.44921,-10.79687l2.02344,0l0,16.0664l-3.21094,0zm0,0"/>
   <path id="svg_24" fill-rule="nonzero" fill="#ffffff" d="m252.00391,80.46484l0,-6.58984l-8.44922,0l0,6.58984l-3.21485,0l0,-16.0664l3.21485,0l0,6.39453l8.44922,0l0,-6.39453l3.21484,0l0,16.0664l-3.21484,0zm0,0"/>
   <path id="svg_25" fill-rule="nonzero" fill="#ffffff" d="m272.41406,80.46484l0,-10.79687l-9.44531,10.79687l-2.02734,0l0,-16.0664l3.21484,0l0,10.79687l9.44531,-10.79687l2.02735,0l0,16.0664l-3.21485,0zm0,0"/>
   <path id="svg_26" fill-rule="nonzero" fill="#ffffff" d="m290.22266,76.28516c-1.22266,-1.89453 -1.80078,-2.53516 -3.69532,-2.53516l-1.80078,0l0,6.71484l-3.21484,0l0,-16.07031l3.21484,0l0,6.23828l1.54297,0c1.92969,0 2.47266,-0.64453 3.69531,-2.57422l2.41016,-3.66406l3.56641,0l-3.27735,5.01563c-0.90234,1.3164 -1.73437,2.3789 -2.60547,2.73047c1.03125,0.32421 1.89844,1.38281 2.82813,2.82812l3.60156,5.49609l-3.5664,0l-2.69922,-4.17968zm0,0"/>
   <path id="svg_27" fill-rule="nonzero" fill="#ffffff" d="m312.23828,72.42969c0,-3.05078 -2.3789,-5.17188 -5.04687,-5.17188c-2.66797,0 -5.01172,2.1211 -5.01172,5.17188c0,3.05469 2.34375,5.14453 5.01172,5.14453c2.66797,0 5.04687,-2.08984 5.04687,-5.14453zm0.76953,8.03515l-0.1914,-2.95703c-1.1875,1.89453 -3.375,3.14844 -5.91407,3.14844c-4.5625,0 -7.9375,-3.66406 -7.9375,-8.22656c0,-4.5625 3.375,-8.25781 7.9375,-8.25781c2.53907,0 4.72657,1.28515 5.91407,3.17968l0.1914,-2.95312l2.1875,0l0,16.0664l-2.1875,0zm0,0"/>
   <path id="svg_28" fill-rule="nonzero" fill="#ffffff" d="m335.31641,77.37891l7.42578,0l-3.73047,-8.19532l-3.69531,8.19532zm9.80468,6.36328l0,-3.27735l-12.21484,0l0,3.27735l-3.21094,0l0,-6.36328l2.3125,0l5.97657,-12.98047l2.02343,0l5.98047,12.98047l2.3125,0l0,6.36328l-3.17969,0zm0,0"/>
   <path id="svg_29" fill-rule="nonzero" fill="#ffffff" d="m354.08984,72.42969c0,3.05469 2.34766,5.14453 5.01172,5.14453c2.66797,0 5.04688,-2.08984 5.04688,-5.14453c0,-3.05078 -2.37891,-5.17188 -5.04688,-5.17188c-2.66406,0 -5.01172,2.1211 -5.01172,5.17188zm13.26954,0c0,4.5625 -3.69532,8.22656 -8.25782,8.22656c-4.5625,0 -8.22656,-3.66406 -8.22656,-8.22656c0,-4.5625 3.66406,-8.25781 8.22656,-8.25781c4.5625,0 8.25782,3.69531 8.25782,8.25781"/>
   <path id="svg_30" fill-rule="nonzero" fill="#ffffff" d="m380.79688,76.28516c-1.21875,-1.89453 -1.79688,-2.53516 -3.69141,-2.53516l-1.80078,0l0,6.71484l-3.21485,0l0,-16.07031l3.21485,0l0,6.23828l1.53906,0c1.92969,0 2.47656,-0.64453 3.69922,-2.57422l2.40625,-3.66406l3.57031,0l-3.27734,5.01563c-0.90235,1.3164 -1.73438,2.3789 -2.60547,2.73047c1.02734,0.32421 1.89844,1.38281 2.82812,2.82812l3.60157,5.49609l-3.57032,0l-2.69921,-4.17968zm0,0"/>
   <path id="svg_31" fill-rule="nonzero" fill="#ffffff" d="m397.73828,80.46484l-3.21484,0l0,-12.98437l-5.42969,0l0,-3.08203l14.10547,0l0,3.08203l-5.46094,0l0,12.98437zm0,0"/>
   <path id="svg_32" fill-rule="nonzero" fill="#ffffff" d="m408.98828,72.42969c0,3.05469 2.34766,5.14453 5.01172,5.14453c2.66797,0 5.04688,-2.08984 5.04688,-5.14453c0,-3.05078 -2.37891,-5.17188 -5.04688,-5.17188c-2.66406,0 -5.01172,2.1211 -5.01172,5.17188zm13.26953,0c0,4.5625 -3.69531,8.22656 -8.25781,8.22656c-4.5625,0 -8.22656,-3.66406 -8.22656,-8.22656c0,-4.5625 3.66406,-8.25781 8.22656,-8.25781c4.5625,0 8.25781,3.69531 8.25781,8.25781"/>
   <path id="svg_33" fill-rule="nonzero" fill="#ffffff" d="m430.26563,72.42969c0,3.05469 2.3789,5.14453 5.04687,5.14453c2.66797,0 5.01172,-2.08984 5.01172,-5.14453c0,-3.05078 -2.34375,-5.14063 -5.01172,-5.14063c-2.66797,0 -5.04687,2.08985 -5.04687,5.14063zm13.23828,0c0,4.5625 -3.3711,8.26172 -7.9336,8.26172c-2.15625,0 -4.05078,-1.09375 -5.07812,-2.66797l0,8.35547l-3.21485,0l0,-21.98047l2.1836,0l0.19531,2.95312c1.1875,-1.89453 3.375,-3.14843 5.91406,-3.14843c4.5625,0 7.9336,3.66406 7.9336,8.22656"/>
   <path id="svg_34" fill-rule="nonzero" fill="#ffffff" d="m460.57422,72.42969c0,-3.05078 -2.37891,-5.17188 -5.04688,-5.17188c-2.66796,0 -5.01171,2.1211 -5.01171,5.17188c0,3.05469 2.34375,5.14453 5.01171,5.14453c2.66797,0 5.04688,-2.08984 5.04688,-5.14453zm0.76953,8.03515l-0.19141,-2.95703c-1.1875,1.89453 -3.375,3.14844 -5.91406,3.14844c-4.5625,0 -7.9375,-3.66406 -7.9375,-8.22656c0,-4.5625 3.375,-8.25781 7.9375,-8.25781c2.53906,0 4.72656,1.28515 5.91406,3.17968l0.19141,-2.95312l2.1875,0l0,16.0664l-2.1875,0zm0,0"/>
   <path id="svg_35" fill-rule="nonzero" fill="#ffffff" d="m201.21875,119.03516l0,-16.00391l-7.55469,9.51172l-7.58203,-9.51172l0,16.00391l-3.46875,0l0,-22.4961l2.02344,0l9.02734,11.41016l9.03125,-11.41016l1.99219,0l0,22.4961l-3.46875,0zm0,0"/>
   <path id="svg_36" fill-rule="nonzero" fill="#ffffff" d="m213.53125,109.78125l9.22266,0c0,-0.48437 -0.12891,-1.09375 -0.38282,-1.57422c-0.67578,-1.48047 -2.12109,-2.53906 -4.11328,-2.53906c-2.73437,0 -4.59765,1.92578 -4.72656,4.11328zm11.82422,-2.50781c0.61328,1.35156 0.67578,3.34375 0.28906,4.5625l-12.24219,0c0,2.82812 2.15235,4.46875 5.01563,4.46875c1.86328,0 3.66016,-0.51563 5.17187,-1.41406l1.73438,1.86328c-1.76563,1.34765 -4.11328,2.47265 -6.90625,2.47265c-4.94922,0 -8.32422,-3.46875 -8.32422,-8.22656c0,-4.5625 3.14844,-8.25781 8.12891,-8.25781c3.47265,0 5.94531,1.73437 7.13281,4.53125"/>
   <path id="svg_37" fill-rule="nonzero" fill="#ffffff" d="m243.77344,114.375c0,3.24609 -2.73047,4.85156 -6.51953,4.88672l-0.41797,0c-3.2461,0 -6.14063,-1.60938 -7.10547,-3.15234l1.76953,-1.89454c1.09375,1.22266 3.05078,2.1211 5.26953,2.1211l0.38672,0c1.96094,0 3.40625,-0.80469 3.40625,-2.41016c0,-1.2539 -0.70703,-2.15234 -2.73047,-2.18359l-2.70312,0l0,-1.99219l2.3789,0c1.67188,-0.03516 2.31641,-0.83594 2.31641,-1.92969c0,-1.47656 -1.32031,-2.15234 -2.92578,-2.15234l-0.28906,0c-1.86329,0 -3.4375,0.73828 -4.62891,1.89453l-1.70313,-1.86328c1.35157,-1.60547 3.82422,-2.95703 6.58985,-2.95703l0.28906,0c3.17969,0 5.84766,1.57422 5.84766,4.37109c0,1.54297 -0.64063,2.92578 -2.3125,3.53516c2.08984,0.44922 3.08203,1.83203 3.08203,3.72656"/>
   <path id="svg_38" fill-rule="nonzero" fill="#ffffff" d="m251.13672,109.78125l9.22656,0c0,-0.48437 -0.1289,-1.09375 -0.38672,-1.57422c-0.67578,-1.48047 -2.12109,-2.53906 -4.11328,-2.53906c-2.73437,0 -4.59765,1.92578 -4.72656,4.11328zm11.82812,-2.50781c0.60938,1.35156 0.67579,3.34375 0.28907,4.5625l-12.2461,0c0,2.82812 2.15625,4.46875 5.01563,4.46875c1.86328,0 3.66406,-0.51563 5.17187,-1.41406l1.73438,1.86328c-1.76563,1.34765 -4.10938,2.47265 -6.90625,2.47265c-4.94922,0 -8.32422,-3.46875 -8.32422,-8.22656c0,-4.5625 3.14844,-8.25781 8.12891,-8.25781c3.47265,0 5.94531,1.73437 7.13671,4.53125"/>
   <path id="svg_39" fill-rule="nonzero" fill="#ffffff" d="m280.12891,119.03516l0,-6.58594l-8.45313,0l0,6.58594l-3.21094,0l0,-16.06641l3.21094,0l0,6.39453l8.45313,0l0,-6.39453l3.21484,0l0,16.06641l-3.21484,0zm0,0"/>
   <path id="svg_40" fill-rule="nonzero" fill="#ffffff" d="m303.30078,122.3125l0,-3.27734l-14.23437,0l0,-16.06641l3.21484,0l0,12.98047l8.25781,0l0,-12.98047l3.21094,0l0,12.98047l2.76563,0l0,6.36328l-3.21485,0zm0,0"/>
   <path id="svg_41" fill-rule="nonzero" fill="#ffffff" d="m312.94531,109.78125l9.22657,0c0,-0.48437 -0.12891,-1.09375 -0.38672,-1.57422c-0.67578,-1.48047 -2.1211,-2.53906 -4.11328,-2.53906c-2.73438,0 -4.59766,1.92578 -4.72657,4.11328zm11.82813,-2.50781c0.60937,1.35156 0.67578,3.34375 0.28906,4.5625l-12.24609,0c0,2.82812 2.15625,4.46875 5.01562,4.46875c1.86328,0 3.66406,-0.51563 5.17188,-1.41406l1.73437,1.86328c-1.76562,1.34765 -4.10937,2.47265 -6.90625,2.47265c-4.94922,0 -8.32422,-3.46875 -8.32422,-8.22656c0,-4.5625 3.14844,-8.25781 8.12891,-8.25781c3.47266,0 5.94531,1.73437 7.13672,4.53125"/>
   <path id="svg_42" fill-rule="nonzero" fill="#ffffff" d="m338.82031,116.30469c2.02344,0 2.76563,-0.90235 2.76563,-2.1875c0,-1.25 -0.70703,-2.1836 -2.73438,-2.1836l-5.36718,-0.03125l0,4.40235l5.33593,0zm-5.33593,-6.75l5.04687,0c1.67188,0 2.3125,-0.83594 2.3125,-1.92969c0,-1.08984 -0.67187,-1.92578 -2.34375,-1.92578l-5.01562,0l0,3.85547zm5.20703,-6.58594c3.76172,0 5.33593,1.70313 5.33593,4.27344c0,1.54297 -0.61328,2.82812 -2.25,3.40625c2.02344,0.44922 3.01954,1.86328 3.01954,3.72656c0,3.18359 -1.83204,4.66016 -6.07422,4.66016l-8.44922,0l0,-16.06641l8.41797,0zm0,0"/>
   <path id="svg_43" fill-rule="nonzero" fill="#ffffff" d="m361.64063,111c0,-3.05078 -2.37891,-5.17187 -5.04688,-5.17187c-2.66797,0 -5.01172,2.12109 -5.01172,5.17187c0,3.05469 2.34375,5.14453 5.01172,5.14453c2.66797,0 5.04688,-2.08984 5.04688,-5.14453zm0.76953,8.03516l-0.19141,-2.95703c-1.1875,1.89843 -3.375,3.14843 -5.91406,3.14843c-4.5625,0 -7.9375,-3.66406 -7.9375,-8.22656c0,-4.5625 3.375,-8.25781 7.9375,-8.25781c2.53906,0 4.72656,1.28515 5.91406,3.18359l0.19141,-2.95703l2.1875,0l0,16.06641l-2.1875,0zm0,0"/>
  </g>
 </g>
</svg>